<svg xmlns="http://www.w3.org/2000/svg" viewBox="0 0 512 512">
  <defs>
    <linearGradient id="back" x1="0" y1="0" x2="1" y2="1">
      <stop offset="0" stop-color="#5a2a26"/>
      <stop offset="1" stop-color="#3a1a18"/>
    </linearGradient>
    <linearGradient id="paper" x1="0" y1="0" x2="0" y2="1">
      <stop offset="0" stop-color="#f6edd7"/>
      <stop offset="1" stop-color="#ede2c3"/>
    </linearGradient>
    <pattern id="weave" width="24" height="24" patternUnits="userSpaceOnUse" patternTransform="rotate(45)">
      <rect width="12" height="24" fill="#d4b36a" opacity=".07"/>
      <rect x="12" width="12" height="24" fill="#000" opacity=".1"/>
    </pattern>
    <radialGradient id="lamp" cx=".5" cy=".18" r=".75">
      <stop offset="0" stop-color="#ffdda0" stop-opacity=".2"/>
      <stop offset=".8" stop-color="#ffdda0" stop-opacity="0"/>
    </radialGradient>
  </defs>
  <rect width="512" height="512" rx="112" fill="url(#back)"/>
  <rect width="512" height="512" rx="112" fill="url(#weave)"/>
  <rect width="512" height="512" rx="112" fill="url(#lamp)"/>
  <rect x="28" y="28" width="456" height="456" rx="92" fill="none" stroke="#a88540" stroke-width="3" opacity=".72"/>
  <rect x="106" y="58" width="300" height="396" rx="20" fill="url(#paper)"/>
  <rect x="119" y="71" width="274" height="370" rx="13" fill="none" stroke="#c8a040" stroke-width="6"/>
  <g fill="#4a5a2a" font-family="Georgia, serif" font-size="72" font-weight="600">
    <text x="138" y="151">1</text>
    <text x="-374" y="-359" transform="rotate(180)">1</text>
  </g>
  <g fill="#4a5a2a">
    <rect x="239" y="151" width="34" height="211" rx="8"/>
    <ellipse cx="256" cy="153" rx="34" ry="14"/>
    <ellipse cx="256" cy="360" rx="34" ry="14"/>
    <rect x="239" y="211" width="34" height="7" fill="#2f391b" opacity=".45"/>
    <rect x="239" y="290" width="34" height="7" fill="#2f391b" opacity=".45"/>
  </g>
</svg>
